# xmcd
#
# Track frame offsets: 
#        150
#        12911
#        25113
#        35286
#        47980
#        67719
#        79921
#        91992
#        105621
#        118783
#        124616
#        136423
#        156247
#        173400
#        195776
#        213176
#        228887
#        241477
#        257525
#        270844
#        290129
#        301730
#        316946
#
# Disc length: 4429 seconds
#
# Revision: 0
# Processed by: cddbd v1.4PL0 Copyright (c) Steve Scherf et al.
# Submitted via: ExactAudioCopy v0.90b4
#
DISCID=21114b17
DTITLE=Various Artist - Blues soul masters - Disc 2
DYEAR=1900
DGENRE=
TTITLE0=When A Man Loves A Woman (Percy Sledge) 
TTITLE1=Born Under A Bad Sign (Albert King)
TTITLE2=Think (Aretha Franklin)
TTITLE3=Going To A Go Go (Smokey Robinson)
TTITLE4=What I'd Say (Ray Charles)
TTITLE5=My Guy (Mary Wells)
TTITLE6=Under The Boardwalk (The Drifters)
TTITLE7=Smokestack Lightnin' (Howlin' Wolf)
TTITLE8=Dust My Broom (Elmore James)
TTITLE9=I'm Gonna Tear Your Playhouse Down (Anne Peebles)
TTITLE10=Private Number (Judy Clay and William Bell) 
TTITLE11=I'll Take You There (The Staples Singers)
TTITLE12=Rainy Night In Georgia (Brook Benton)
TTITLE13=The Thrill Is Gone (BB King)
TTITLE14=Need Your Love So Bad (Fleetwood Mac)
TTITLE15=Drift Away (Dobie Gray)
TTITLE16=High Heel Sneakers (Tommy Tucker)
TTITLE17=I'll Be The Other Woman (Soul Children)
TTITLE18=Stand By Me (Ben E. King)
TTITLE19=Midnight Train To Georgia (Gladys Knight)
TTITLE20=Oh No Not My Baby (Maxine Brown)
TTITLE21=Chains Of Love (Joe Turner)
TTITLE22=If Loving You Is Wrong I Don't Want To Be Right (Millie Jacks
TTITLE22=on)
EXTD=
EXTT0=
EXTT1=
EXTT2=
EXTT3=
EXTT4=
EXTT5=
EXTT6=
EXTT7=
EXTT8=
EXTT9=
EXTT10=
EXTT11=
EXTT12=
EXTT13=
EXTT14=
EXTT15=
EXTT16=
EXTT17=
EXTT18=
EXTT19=
EXTT20=
EXTT21=
EXTT22=
PLAYORDER=
